<svg width="24" height="24" viewBox="0 0 24 24" fill="none" xmlns="http://www.w3.org/2000/svg">
<path d="M22.3124 7.5C22.3123 6.35064 21.9716 5.22709 21.3331 4.27136C20.6947 3.31564 19.7872 2.57065 18.7254 2.13057C17.6637 1.69049 16.4952 1.57507 15.3679 1.79891C14.2405 2.02275 13.2048 2.57579 12.3917 3.38813L5.82175 9.88219C5.69962 10.0039 5.60279 10.1486 5.53682 10.3078C5.47085 10.4671 5.43705 10.6379 5.43737 10.8103V17.7675L2.60237 20.6025C2.54711 20.654 2.50278 20.7161 2.47204 20.7851C2.44129 20.8541 2.42476 20.9286 2.42343 21.0041C2.42209 21.0796 2.43599 21.1547 2.46428 21.2247C2.49257 21.2947 2.53468 21.3584 2.58809 21.4118C2.64151 21.4652 2.70513 21.5073 2.77517 21.5356C2.84521 21.5639 2.92024 21.5778 2.99576 21.5764C3.07129 21.5751 3.14578 21.5586 3.21477 21.5278C3.28377 21.4971 3.34587 21.4528 3.39737 21.3975L6.23237 18.5625H13.1896C13.362 18.5628 13.5327 18.529 13.692 18.4631C13.8513 18.3971 13.996 18.3002 14.1177 18.1781L20.5705 11.6503L20.6071 11.6128C21.1493 11.0742 21.5793 10.4334 21.872 9.72736C22.1647 9.02136 22.3144 8.26428 22.3124 7.5ZM13.1849 4.185C14.0544 3.32257 15.227 2.8347 16.4517 2.82579C17.6763 2.81687 18.8559 3.28761 19.7379 4.13729C20.6199 4.98696 21.1343 6.1481 21.1712 7.37225C21.208 8.59641 20.7642 9.78635 19.9349 10.6875H14.1074L17.6474 7.1475C17.7467 7.04087 17.8008 6.89984 17.7983 6.75411C17.7957 6.60838 17.7366 6.46935 17.6336 6.36629C17.5305 6.26323 17.3915 6.20419 17.2458 6.20162C17.1 6.19905 16.959 6.25314 16.8524 6.3525L12.3524 10.8525L11.0624 12.1425V6.28125L13.1849 4.185ZM6.56237 10.8103C6.56232 10.7617 6.58114 10.715 6.61487 10.68L9.93737 7.39875V13.2703L6.56237 16.6453V10.8103ZM13.3208 17.3831C13.2859 17.4178 13.2387 17.4373 13.1896 17.4375H7.35737L10.8974 13.8984L12.9824 11.8125H18.8277L13.3208 17.3831Z" fill="black"/>
</svg>
